HIERARCHY
ROOT ui
{
	 OFFSET 0 0 0
	 CHANNELS 3 XPosition YPosition Z Position
	 EndSite
	 {
	 OFFSET 0 -1 0
	 }
}
ROOT li
{
	 OFFSET 0 0 0
	 CHANNELS 3 XPosition YPosition Z Position
	 EndSite
	 {
	 OFFSET 0 -1 0
	 }
}
ROOT ul
{
	 OFFSET 0 0 0
	 CHANNELS 3 XPosition YPosition Z Position
	 EndSite
	 {
	 OFFSET 0 -1 0
	 }
}
ROOT ll
{
	 OFFSET 0 0 0
	 CHANNELS 3 XPosition YPosition Z Position
	 EndSite
	 {
	 OFFSET 0 -1 0
	 }
}
ROOT tt
{
	 OFFSET 0 0 0
	 CHANNELS 3 XPosition YPosition Z Position
	 EndSite
	 {
	 OFFSET 0 -1 0
	 }
}
ROOT tb
{
	 OFFSET 0 0 0
	 CHANNELS 3 XPosition YPosition Z Position
	 EndSite
	 {
	 OFFSET 0 -1 0
	 }
}
ROOT td
{
	 OFFSET 0 0 0
	 CHANNELS 3 XPosition YPosition Z Position
	 EndSite
	 {
	 OFFSET 0 -1 0
	 }
}
ROOT v
{
	 OFFSET 0 0 0
	 CHANNELS 3 XPosition YPosition Z Position
	 EndSite
	 {
	 OFFSET 0 -1 0
	 }
}
ROOT bn
{
	 OFFSET 0 0 0
	 CHANNELS 3 XPosition YPosition Z Position
	 EndSite
	 {
	 OFFSET 0 -1 0
	 }
}
MOTION
Frames: 21
Frame Time: 0.002
-0.06254872512817383	0.004660373210906983	0		0.4386722106933594	-2.325261962890625	0		-1.081582275390625	0.18139891052246093	0		-0.5097903442382813	-2.881384033203125	0		2.281021240234375	0.04069344329833984	0		3.68711474609375	0.21452392578125	0		5.01002685546875	0.19929911804199218	0		5.907607421875	0.30847711181640625	0		-0.37386932373046877	5.88763232421875	0		
0.007488162994384766	-0.004107404232025147	0		0.47269827270507814	-2.338606201171875	0		-1.0873944091796874	0.18648406982421875	0		-0.543795166015625	-2.89796484375	0		2.274051025390625	0.03185487937927246	0		3.66932568359375	0.22183738708496092	0		4.99606591796875	0.1915927276611328	0		5.8986201171875	0.3487826232910156	0		-0.40790283203125	5.8830537109375	0		
0.007610154151916504	-0.004053225040435791	0		0.44791842651367186	-2.3332578125	0		-1.076287841796875	0.18539375305175781	0		-0.5028338623046875	-2.91638916015625	0		2.284033935546875	0.019833135604858398	0		3.697201171875	0.2006331329345703	0		4.9961845703125	0.1917305603027344	0		5.91143115234375	0.32447280883789065	0		-0.37667510986328123	5.90074365234375	0		
0.01480000877380371	0.0019355390071868895	0		0.460003662109375	-2.339319091796875	0		-1.067077880859375	0.19334400939941407	0		-0.5416911010742187	-2.9178798828125	0		2.2841552734375	0.01993496894836426	0		3.6866298828125	0.22787937927246094	0		4.98646435546875	0.2059847412109375	0		5.91516650390625	0.3419394226074219	0		-0.3435597229003906	5.90742919921875	0		
0.014930891036987306	0.0020188229084014894	0		0.48207980346679685	-2.346482177734375	0		-1.07793701171875	0.19454074096679688	0		-0.45381869506835937	-2.94380859375	0		2.270080810546875	0.002205679893493652	0		3.666473388671875	0.2032353057861328	0		4.98844384765625	0.19310295104980468	0		5.90532470703125	0.35285794067382814	0		-0.3595870056152344	5.89969189453125	0		
0.008009759902954102	-0.003804888963699341	0		0.4443400573730469	-2.337948486328125	0		-1.0837340087890626	0.19969593811035155	0		-0.53069970703125	-2.947835693359375	0		2.2671708984375	-0.0026454100608825685	0		3.66171044921875	0.2114176483154297	0		4.974681640625	0.2013990478515625	0		5.89759326171875	0.35505523681640627	0		-0.374613037109375	5.88895703125	0		
0.008176665306091308	-0.0036977810859680177	0		0.47430908203125	-2.35618115234375	0		-1.0835679931640625	0.1997984161376953	0		-0.46183352661132815	-2.97551806640625	0		2.26604052734375	-0.02851557731628418	0		3.679783935546875	0.20333499145507813	0		4.97484765625	0.20152725219726564	0		5.90679638671875	0.31523953247070313	0		-0.3744711608886719	5.8890625	0		
0.008364498138427734	-0.003580075025558472	0		0.45742843627929686	-2.361868896484375	0		-1.0742891845703124	0.2078131561279297	0		-0.490793701171875	-2.988067626953125	0		2.228196533203125	-0.030964126586914064	0		3.64915673828125	0.21980455017089845	0		4.9709560546875	0.1946890411376953	0		5.90344580078125	0.33283660888671873	0		-0.40833578491210937	5.8845693359375	0		
0.006663893222808838	0.004570551872253418	0		0.4767242736816406	-2.352961181640625	0		-1.0809195556640625	0.22202682495117188	0		-0.44981179809570315	-3.006404296875	0		2.238254638671875	-0.04396221923828125	0		3.663124755859375	0.19875302124023436	0		4.97133642578125	0.20978768920898438	0		5.90219140625	0.33822845458984374	0		-0.40710556030273437	5.88368896484375	0		
0.015865036010742187	0.002606740951538086	0		0.45579693603515625	-2.36358642578125	0		-1.0806923828125	0.2221785888671875	0		-0.44683993530273436	-3.02529296875	0		2.22733056640625	-0.056722209930419924	0		3.67243115234375	0.2057461395263672	0		4.96647216796875	0.20192689514160156	0		5.89870361328125	0.32114993286132815	0		-0.3737460632324219	5.88945458984375	0		
0.00903260612487793	-0.0031627650260925293	0		0.5048728332519531	-2.374005859375	0		-1.0904404296875	0.22346253967285157	0		-0.42282000732421876	-3.039409423828125	0		2.231324462890625	-0.07765623474121094	0		3.651534423828125	0.19407254028320312	0		4.967734375	0.20397705078125	0		5.89887060546875	0.3212267761230469	0		-0.3734053955078125	5.889611328125	0		
0.00927143383026123	-0.003002211093902588	0		0.4839407653808594	-2.383615234375	0		-1.0901961669921876	0.22364968872070312	0		-0.4327803955078125	-3.050122802734375	0		2.220401123046875	-0.09142207336425781	0		3.6347216796875	0.18934071350097656	0		4.9620478515625	0.21008622741699218	0		5.8990390625	0.32125634765625	0		-0.4060908203125	5.88416064453125	0		
0.009502318382263184	-0.0028309690952301025	0		0.4840985717773437	-2.38345849609375	0		-1.089958251953125	0.2238546905517578	0		-0.44788409423828124	-3.070763671875	0		2.200434814453125	-0.10808712005615234	0		3.656933837890625	0.18714723205566405	0		4.958193359375	0.20215200805664063	0		5.90285009765625	0.3384366455078125	0		-0.42364337158203125	5.8875517578125	0		
0.019826665878295898	0.007235258102416992	0		0.46027899169921876	-2.378016357421875	0		-1.0806485595703126	0.2319734344482422	0		-0.4158485412597656	-3.075933837890625	0		2.206570556640625	-0.11405491638183594	0		3.64731298828125	0.20130899047851564	0		4.96250244140625	0.21010400390625	0		5.9071943359375	0.32095223999023437	0		-0.3419547729492188	5.9098125	0		
0.01695212745666504	0.0034642670154571534	0		0.5351915893554687	-2.391711181640625	0		-1.0524691162109374	0.2318900146484375	0		-0.424937255859375	-3.08661572265625	0		2.1955751953125	-0.12782695770263672	0		3.614228271484375	0.17873056030273438	0		4.9546953125	0.2111769561767578	0		5.89581982421875	0.3038663024902344	0		-0.37076959228515627	5.88935986328125	0		
-0.066986328125	-3.506900072097778E-4	0		0.47716891479492185	-2.392854736328125	0		-1.1231873779296875	0.24597477722167968	0		-0.40113943481445313	-3.1006669921875	0		2.1953916015625	-0.15272628784179687	0		3.62733837890625	0.17760855102539064	0		4.95565625	0.19712994384765625	0		5.8928037109375	0.2536343078613281	0		-0.3703669128417969	5.8895849609375	0		
0.010034960746765137	-0.0020308160781860353	0		0.5229330444335938	-2.40520068359375	0		-1.089196533203125	0.24085598754882812	0		-0.43144381713867186	-3.1150751953125	0		2.19917529296875	-0.17367373657226562	0		3.6111767578125	0.1598169708251953	0		4.93671826171875	0.19829974365234376	0		5.89227978515625	0.288069091796875	0		-0.3700074157714844	5.88982275390625	0		
-0.06699830627441407	1.0249599814414979E-4	0		0.49850537109375	-2.42472021484375	0		-1.128218017578125	0.24260780334472656	0		-0.39291827392578127	-3.135279052734375	0		2.18486865234375	-0.19441110229492187	0		3.614394775390625	0.18179219055175783	0		4.94584375	0.2121257019042969	0		5.8922392578125	0.28785009765625	0		-0.43783041381835935	5.87987353515625	0		
0.009839847564697265	-0.0015669820308685304	0		0.5340716552734375	-2.4359404296875	0		-1.085314453125	0.24540878295898438	0		-0.4193934326171875	-3.145708251953125	0		2.16366552734375	-0.19806600952148437	0		3.59394384765625	0.1550348663330078	0		4.9226318359375	0.20531660461425782	0		5.8848388671875	0.25493577575683596	0		-0.369470458984375	5.89033349609375	0		
-0.067380615234375	5.947520136833191E-4	0		0.5275843505859374	-2.442658935546875	0		-1.05158544921875	0.24132481384277343	0		-0.2621551513671875	-3.17231201171875	0		2.150212890625	-0.21481207275390626	0		3.60765625	0.14986872863769532	0		4.92833642578125	0.19915481567382812	0		5.89249951171875	0.25270413208007814	0		-0.3693050231933594	5.89060498046875	0		
0.009279648780822753	-0.0010676579475402833	0		0.5568700561523438	-2.4607998046875	0		-1.05693798828125	0.23771461486816406	0		-0.40163406372070315	-3.165374755859375	0		2.135672607421875	-0.23154214477539062	0		3.55615673828125	0.13447752380371095	0		4.914125	0.20722463989257814	0		5.879537109375	0.2752732849121094	0		-0.3692068176269531	5.89088623046875	0		
